<svg id="Livello_1" data-name="Livello 1" xmlns="http://www.w3.org/2000/svg" viewBox="0 0 546.23 678.43">
  <defs>
    <style>
      .cls-1 {
        fill: none;
        stroke: #1d1d1b;
        stroke-miterlimit: 10;
      }
    </style>
  </defs>
  <path class="cls-1" d="M421.82,121.34a189.24,189.24,0,0,0-99.92-21c-16.14,1.1-33.71,5.24-43.26,18.3-4.74,6.47-6.93,14.43-8.7,22.26-6.44,28.41-8.66,57.59-11.21,86.62-6.25,71.18-14.6,142.31-29.63,212.16-5.23,24.3-11.38,48.72-23.15,70.61a150.5,150.5,0,0,1-39,46.54c-7.1,5.61-15.49,10.8-24.5,10-13.11-1.13-21.9-14.36-25.06-27.12s-2.8-26.41-7.67-38.63" transform="translate(-39.78 -99.44)"/>
  <path class="cls-1" d="M105.86,463.16,47.54,678.48c-3.65,13.47-7.32,27.13-7.26,41.08S44.61,748,54.73,757.63L114,745" transform="translate(-39.78 -99.44)"/>
  <path class="cls-1" d="M181.82,724.53c27.62,7.36,54.85-12.9,73.35-34.7a273.91,273.91,0,0,0,56.31-109c27.09,52,54.19,103.94,83.69,154.57,9.75,16.74,20.93,34.36,38.83,41.76q3.38-80.89,6.69-161.79c1-23.64,1.92-47.52-2.43-70.78-4.94-26.47-16.57-51.19-29-75.08C374,401.77,331.42,338.17,289,274.73c-40.6-60.65-81.89-122.09-137.08-169.86L273,155.38c46.26,19.28,92.7,38.65,135.66,64.45L138.62,308c148.23-19.63,297.94-24.84,447.38-30" transform="translate(-39.78 -99.44)"/>
</svg>
